<svg version="1.1" id="Layer_1" xmlns="http://www.w3.org/2000/svg" xmlns:xlink="http://www.w3.org/1999/xlink" x="0px" y="0px"
	 width="100%" viewBox="0 0 400 400" enable-background="new 0 0 400 400" xml:space="preserve">
<path fill="#FDFFFF" opacity="1.000000" stroke="none" 
	d="
M233.000000,401.000000 
	C155.333328,401.000000 78.166664,401.000000 1.000000,401.000000 
	C1.000000,267.666656 1.000000,134.333328 1.000000,1.000000 
	C134.333328,1.000000 267.666656,1.000000 401.000000,1.000000 
	C401.000000,134.333328 401.000000,267.666656 401.000000,401.000000 
	C345.166656,401.000000 289.333344,401.000000 233.000000,401.000000 
M291.809143,288.832642 
	C292.155060,288.981018 292.500977,289.129425 292.928497,289.200134 
	C292.928497,289.200134 292.815857,289.197266 293.281189,289.844513 
	C295.191589,290.239288 297.094391,290.924591 299.013794,290.974884 
	C304.999725,291.131653 310.991913,291.048126 317.220917,291.711060 
	C322.756348,301.380859 328.128448,311.151245 333.966431,320.634827 
	C335.120056,322.508820 337.954773,323.875671 340.233673,324.301147 
	C341.332550,324.506317 343.777100,322.160400 344.102875,320.645111 
	C344.490143,318.843567 343.635040,316.481293 342.658112,314.730286 
	C338.119476,306.595154 333.436096,298.536957 328.621185,290.561859 
	C326.959473,287.809540 326.855957,285.552155 328.632446,282.780304 
	C331.500366,278.305389 333.720764,273.405304 336.703369,269.016968 
	C339.564880,264.806854 339.293549,261.135956 336.616150,257.062408 
	C333.973450,253.041672 331.398499,248.921906 329.375732,244.574829 
	C328.556366,242.813889 328.507477,239.910782 329.422729,238.253571 
	C335.373718,227.478836 341.709686,216.917297 347.864868,206.254379 
	C349.438782,203.527802 351.410370,200.818848 352.066284,197.851364 
	C352.479248,195.982895 351.356812,192.859818 349.856323,191.774582 
	C348.665802,190.913513 345.649994,191.888733 343.833099,192.812607 
	C342.530823,193.474792 341.764923,195.338394 340.940186,196.769974 
	C334.134735,208.582718 327.477661,220.483414 320.471191,232.175018 
	C319.513916,233.772400 316.936157,235.127930 315.007751,235.275360 
	C309.540222,235.693390 304.014099,235.590744 298.523132,235.379227 
	C293.967529,235.203751 290.992706,237.090515 288.871704,241.027542 
	C286.428925,245.561844 283.949158,250.119019 280.974548,254.303040 
	C279.775757,255.989197 277.248383,257.661072 275.279938,257.716553 
	C263.790314,258.040466 252.283966,258.019470 240.791809,257.750366 
	C238.921616,257.706573 236.309845,256.315613 235.371033,254.749786 
	C228.020676,242.490433 220.907883,230.084656 213.985382,217.578140 
	C213.169846,216.104752 213.250702,213.352142 214.096130,211.862106 
	C223.860718,194.652283 233.917175,177.608246 243.718903,160.419128 
	C245.270493,157.698151 247.071838,156.817993 250.076813,156.876190 
	C258.905792,157.047180 267.783203,157.479492 276.558929,156.776688 
	C283.725189,156.202789 287.785278,158.523392 290.833618,165.061813 
	C294.329987,172.561325 298.809479,179.649857 303.407959,186.553192 
	C304.489685,188.177155 308.131134,189.503723 309.945190,188.926117 
	C313.267822,187.868195 313.511871,184.510422 312.286163,181.359634 
	C311.928131,180.439224 311.320282,179.615616 310.823181,178.749771 
	C307.592499,173.122559 304.851959,167.131088 301.009613,161.958130 
	C295.778931,154.916168 295.268372,148.916183 300.757751,141.519394 
	C306.568848,133.689102 311.022583,124.851479 316.976349,116.653107 
	C326.381165,116.504906 335.785980,116.356705 345.904663,116.071976 
	C350.188049,112.432976 350.214844,110.140114 346.106628,106.987602 
	C346.106628,106.987602 346.109283,106.889214 345.905670,106.403694 
	C345.582977,106.369354 345.260315,106.335014 344.125854,106.188988 
	C342.762054,106.216980 341.398224,106.244980 339.243683,106.022751 
	C338.152802,106.109978 337.061920,106.197205 335.044983,106.190910 
	C329.734772,106.229599 324.424561,106.268295 318.548645,106.123856 
	C318.354370,106.162674 318.160065,106.201492 317.284668,106.124886 
	C316.832245,106.193893 316.379822,106.262901 315.658997,106.117401 
	C315.658997,106.117401 315.315735,106.133308 315.125031,105.534943 
	C313.827087,103.604286 312.529144,101.673630 311.167328,99.855072 
	C311.167328,99.855072 311.296356,99.853371 311.226532,99.245483 
	C310.872681,98.770576 310.518860,98.295670 310.121521,97.909027 
	C310.121521,97.909027 310.219910,97.906631 310.114014,97.188332 
	C307.719177,93.178360 305.324341,89.168388 302.975922,85.079147 
	C302.975922,85.079147 302.890045,85.046463 302.821014,84.348206 
	C300.945740,81.364380 299.070465,78.380554 297.217316,75.131470 
	C297.217316,75.131470 296.998596,74.979759 296.865570,74.301033 
	C295.668121,72.436592 294.470703,70.572144 293.124176,68.989838 
	C293.124176,68.989838 293.305603,68.727295 293.057617,68.066864 
	C290.308807,67.218750 287.574890,65.698418 284.808685,65.637276 
	C271.882751,65.351593 258.947906,65.468384 245.938354,65.157417 
	C245.938354,65.157417 245.649582,65.100220 245.492493,64.451859 
	C244.074707,62.222134 242.656921,59.992409 241.186905,57.872196 
	C241.186905,57.872196 241.306992,57.854855 241.248642,57.258423 
	C240.790237,56.637215 240.331833,56.016006 239.956619,55.196850 
	C239.956619,55.196850 239.781708,55.072296 239.750504,54.372105 
	C238.207657,52.075867 236.664810,49.779625 235.162201,47.194252 
	C235.162201,47.194252 234.930771,47.016346 234.868546,46.296268 
	C232.012527,43.390850 229.233154,42.555439 226.757401,46.693680 
	C226.757401,46.693680 226.605133,46.672031 226.033310,46.975800 
	C226.263306,48.745544 226.493301,50.515293 226.797943,52.171890 
	C226.797943,52.171890 226.662430,52.175011 226.735870,52.786167 
	C227.093826,53.259029 227.451797,53.731892 227.848877,54.099110 
	C227.848877,54.099110 227.737442,54.115627 227.786514,54.695282 
	C228.227432,55.295750 228.668350,55.896221 229.165451,57.240204 
	C230.742859,59.974865 232.112076,62.859581 233.948685,65.407402 
	C236.419693,68.835281 236.225037,71.767281 234.022858,75.368622 
	C228.125656,85.012764 222.767014,94.986107 216.875305,104.633804 
	C214.047470,109.264374 213.889740,113.258316 216.763733,117.965660 
	C222.910797,128.033997 228.760071,138.291260 234.432007,148.635254 
	C235.329224,150.271500 235.481735,153.226807 234.596771,154.789993 
	C224.767578,172.152176 214.746933,189.408493 204.510849,206.533737 
	C203.504074,208.218079 200.743149,209.769226 198.764206,209.809799 
	C185.108566,210.089722 171.442154,210.068771 157.785538,209.810303 
	C155.940399,209.775375 153.404678,208.326065 152.425751,206.758957 
	C147.230301,198.441818 142.308624,189.944153 137.607040,181.337021 
	C136.786942,179.835678 136.777069,177.148010 137.576233,175.632019 
	C141.450562,168.282608 145.576248,161.052551 149.923157,153.970642 
	C152.322769,150.061218 152.170471,146.612061 149.877975,142.816254 
	C146.012939,136.416687 142.415207,129.855606 138.544418,123.459663 
	C136.982407,120.878670 136.978836,118.799232 138.640198,116.165466 
	C142.095810,110.687286 145.324387,105.046173 148.301773,99.293716 
	C149.987122,96.037575 152.140579,94.771339 155.782990,95.096977 
	C159.419113,95.422050 163.166656,95.562531 166.750122,95.021202 
	C168.938660,94.690590 171.608841,93.421844 172.842239,91.700127 
	C176.022995,87.260040 178.856506,82.487427 181.152359,77.534142 
	C182.225647,75.218513 182.680359,71.817284 181.803986,69.523842 
	C175.084778,51.939911 170.928757,49.382561 152.302063,50.069641 
	C146.968292,50.266384 142.754639,51.816914 140.634033,57.320538 
	C139.631531,59.922287 138.119431,62.469330 136.291336,64.563828 
	C134.970245,66.077438 132.801376,67.606995 130.917038,67.733269 
	C124.946335,68.133392 118.908951,67.586769 112.947853,68.052551 
	C111.139572,68.193840 108.433006,70.191704 108.072701,71.778526 
	C107.708008,73.384712 109.356300,75.954521 110.844078,77.311447 
	C111.994858,78.360985 114.251328,78.462250 116.029083,78.510345 
	C121.189751,78.649971 126.358711,78.462044 131.520950,78.569557 
	C136.864380,78.680862 142.403366,88.519180 139.778412,93.099525 
	C136.471680,98.869560 133.361649,104.771286 129.700745,110.308075 
	C128.573303,112.013229 125.966812,113.603165 123.957123,113.708313 
	C116.480949,114.099464 108.951355,114.184471 101.480492,113.737656 
	C95.395576,113.373734 91.596291,115.403000 88.684135,120.906258 
	C84.586975,128.648849 79.630524,135.936737 74.121544,143.200378 
	C63.432060,143.329086 52.742573,143.457794 41.387749,143.527069 
	C36.869236,147.112228 36.769222,149.600769 41.612583,153.526154 
	C53.087673,153.608505 64.562759,153.690857 76.320518,154.423782 
	C80.880630,162.340195 85.495613,170.225708 89.975975,178.186996 
	C91.991753,181.768921 94.810562,183.291794 98.952209,183.183151 
	C106.608116,182.982330 114.287163,182.861649 121.925117,183.280716 
	C124.134331,183.401917 127.084892,184.938202 128.240417,186.752533 
	C133.235199,194.595047 137.643097,202.809128 142.371185,210.825104 
	C143.759033,213.178040 143.986008,215.039825 142.415405,217.608261 
	C137.216309,226.110474 131.391876,234.430023 127.647903,243.573303 
	C122.627243,255.834427 114.591263,259.379425 101.908058,258.235321 
	C94.327690,257.551544 87.873207,257.515564 85.079964,249.143875 
	C85.038406,249.019318 84.814613,248.955566 84.558846,248.186127 
	C84.106674,247.709854 83.654503,247.233582 83.180443,246.889511 
	C83.180443,246.889511 83.308105,246.848816 83.253189,246.139297 
	C81.870338,242.452652 79.173294,240.901779 75.290215,241.054749 
	C71.204010,241.215729 67.112137,241.232513 62.313549,241.102676 
	C61.211636,239.968048 59.844025,238.992584 59.052883,237.671814 
	C55.209461,231.255402 51.557255,224.724838 47.761593,218.279312 
	C45.805748,214.958038 42.799072,213.326477 39.430992,215.652710 
	C36.340904,217.786957 36.875141,220.960770 38.729912,224.038544 
	C42.504684,230.302414 46.344654,236.547485 49.663509,243.052460 
	C50.591396,244.871124 50.759689,248.371292 49.629414,249.737350 
	C41.963436,259.002441 42.213177,267.835754 49.923424,276.796600 
	C52.102699,279.329346 51.519329,281.874817 49.887268,284.576691 
	C46.108810,290.831970 42.595917,297.247437 38.833763,303.512909 
	C36.687340,307.087585 35.811993,310.428558 40.144787,312.836578 
	C44.653694,315.342438 46.446915,311.613281 48.203571,308.678345 
	C51.788513,302.688812 55.337399,296.662231 58.535019,290.462067 
	C60.523903,286.605682 63.096096,284.232147 67.524284,285.172302 
	C78.113571,287.420502 84.098633,282.244080 87.749329,273.044678 
	C87.932251,272.583740 88.086502,271.979980 88.449760,271.744354 
	C90.239388,270.583557 92.049133,268.682983 93.935623,268.580017 
	C100.911842,268.199341 107.924004,268.541107 114.916603,268.367493 
	C117.970612,268.291626 119.688271,269.405731 121.201935,272.090485 
	C128.382126,284.825806 136.025391,297.304535 143.011536,310.142517 
	C145.806992,315.279510 149.461517,317.113281 155.022644,316.995636 
	C165.347443,316.777222 175.680496,316.898987 186.009689,316.955322 
	C191.657806,316.986084 198.426727,315.292023 202.643906,317.807037 
	C207.045242,320.431946 209.047836,327.143646 211.992294,332.131744 
	C216.470444,339.718048 220.928253,347.318390 225.248306,354.995117 
	C227.119949,358.321045 230.192932,359.221283 232.662415,357.201813 
	C234.229889,355.919983 234.394974,352.448792 234.429092,349.949005 
	C234.448730,348.510376 232.970474,347.041351 232.137787,345.602600 
	C226.226395,335.388611 220.370499,325.141571 214.347137,314.993958 
	C212.832230,312.441772 212.657257,310.461853 214.268982,307.754944 
	C221.412079,295.757843 228.179596,283.536377 235.380814,271.575409 
	C236.326843,270.004089 238.970459,268.633148 240.862289,268.587189 
	C252.517838,268.303711 264.185120,268.325592 275.843292,268.534454 
	C277.433716,268.562988 279.553619,269.819031 280.471466,271.161102 
	C284.010956,276.336548 287.162018,281.777557 290.714844,287.721588 
	C291.082153,287.917999 291.449493,288.114441 291.778717,288.162750 
	C291.778717,288.162750 291.662384,288.262024 291.809143,288.832642 
z"/>
<path fill="#23B294" opacity="1.000000" stroke="none" 
	d="
M84.675865,248.863434 
	C84.814613,248.955566 85.038406,249.019318 85.079964,249.143875 
	C87.873207,257.515564 94.327690,257.551544 101.908058,258.235321 
	C114.591263,259.379425 122.627243,255.834427 127.647903,243.573303 
	C131.391876,234.430023 137.216309,226.110474 142.415405,217.608261 
	C143.986008,215.039825 143.759033,213.178040 142.371185,210.825104 
	C137.643097,202.809128 133.235199,194.595047 128.240417,186.752533 
	C127.084892,184.938202 124.134331,183.401917 121.925117,183.280716 
	C114.287163,182.861649 106.608116,182.982330 98.952209,183.183151 
	C94.810562,183.291794 91.991753,181.768921 89.975975,178.186996 
	C85.495613,170.225708 80.880630,162.340195 76.046326,153.727661 
	C74.237236,152.687378 72.705551,152.063156 71.166931,152.045609 
	C62.681732,151.948792 54.194328,151.952255 45.708996,152.043701 
	C44.139164,152.060623 42.575363,152.637802 41.008778,152.956390 
	C36.769222,149.600769 36.869236,147.112228 41.875164,143.891449 
	C53.127316,144.502731 63.891972,144.754745 74.657867,144.930801 
	C74.777481,144.932755 74.913277,143.944885 75.041519,143.419067 
	C79.630524,135.936737 84.586975,128.648849 88.684135,120.906258 
	C91.596291,115.403000 95.395576,113.373734 101.480492,113.737656 
	C108.951355,114.184471 116.480949,114.099464 123.957123,113.708313 
	C125.966812,113.603165 128.573303,112.013229 129.700745,110.308075 
	C133.361649,104.771286 136.471680,98.869560 139.778412,93.099525 
	C142.403366,88.519180 136.864380,78.680862 131.520950,78.569557 
	C126.358711,78.462044 121.189751,78.649971 116.029083,78.510345 
	C114.251328,78.462250 111.994858,78.360985 110.844078,77.311447 
	C109.356300,75.954521 107.708008,73.384712 108.072701,71.778526 
	C108.433006,70.191704 111.139572,68.193840 112.947853,68.052551 
	C118.908951,67.586769 124.946335,68.133392 130.917038,67.733269 
	C132.801376,67.606995 134.970245,66.077438 136.291336,64.563828 
	C138.119431,62.469330 139.631531,59.922287 140.634033,57.320538 
	C142.754639,51.816914 146.968292,50.266384 152.302063,50.069641 
	C170.928757,49.382561 175.084778,51.939911 181.803986,69.523842 
	C182.680359,71.817284 182.225647,75.218513 181.152359,77.534142 
	C178.856506,82.487427 176.022995,87.260040 172.842239,91.700127 
	C171.608841,93.421844 168.938660,94.690590 166.750122,95.021202 
	C163.166656,95.562531 159.419113,95.422050 155.782990,95.096977 
	C152.140579,94.771339 149.987122,96.037575 148.301773,99.293716 
	C145.324387,105.046173 142.095810,110.687286 138.640198,116.165466 
	C136.978836,118.799232 136.982407,120.878670 138.544418,123.459663 
	C142.415207,129.855606 146.012939,136.416687 149.877975,142.816254 
	C152.170471,146.612061 152.322769,150.061218 149.923157,153.970642 
	C145.576248,161.052551 141.450562,168.282608 137.576233,175.632019 
	C136.777069,177.148010 136.786942,179.835678 137.607040,181.337021 
	C142.308624,189.944153 147.230301,198.441818 152.425751,206.758957 
	C153.404678,208.326065 155.940399,209.775375 157.785538,209.810303 
	C171.442154,210.068771 185.108566,210.089722 198.764206,209.809799 
	C200.743149,209.769226 203.504074,208.218079 204.510849,206.533737 
	C214.746933,189.408493 224.767578,172.152176 234.596771,154.789993 
	C235.481735,153.226807 235.329224,150.271500 234.432007,148.635254 
	C228.760071,138.291260 222.910797,128.033997 216.763733,117.965660 
	C213.889740,113.258316 214.047470,109.264374 216.875305,104.633804 
	C222.767014,94.986107 228.125656,85.012764 234.022858,75.368622 
	C236.225037,71.767281 236.419693,68.835281 233.948685,65.407402 
	C232.112076,62.859581 230.742859,59.974865 229.096924,56.572018 
	C228.598068,55.307766 228.167755,54.711700 227.737427,54.115631 
	C227.737442,54.115627 227.848877,54.099110 227.867554,53.813179 
	C227.478302,53.076504 227.070374,52.625755 226.662430,52.175011 
	C226.662430,52.175011 226.797943,52.171890 226.855225,51.763969 
	C226.810043,49.794712 226.707596,48.233372 226.605133,46.672031 
	C226.605133,46.672031 226.757401,46.693680 227.092407,46.752182 
	C229.928543,46.879238 232.429657,46.947792 234.930771,47.016346 
	C234.930771,47.016346 235.162201,47.194252 235.199005,47.718506 
	C236.751114,50.519272 238.266403,52.795784 239.781708,55.072296 
	C239.781708,55.072296 239.956619,55.196850 239.958801,55.606071 
	C240.409653,56.628483 240.858322,57.241673 241.306976,57.854858 
	C241.306992,57.854855 241.186905,57.872196 241.137833,58.197227 
	C242.609024,60.714916 244.129303,62.907570 245.649582,65.100220 
	C245.649582,65.100220 245.938354,65.157417 246.233612,65.565369 
	C248.434158,66.315483 250.329269,66.875122 252.246384,66.964943 
	C265.930267,67.606110 279.618652,68.151466 293.305603,68.727295 
	C293.305603,68.727295 293.124176,68.989838 293.140442,69.232178 
	C294.437317,71.309601 295.717957,73.144676 296.998596,74.979759 
	C296.998596,74.979759 297.217316,75.131470 297.171143,75.665596 
	C299.046631,79.148636 300.968353,82.097549 302.890045,85.046463 
	C302.890045,85.046463 302.975922,85.079147 302.976257,85.485382 
	C305.391052,89.896614 307.805481,93.901619 310.219910,97.906631 
	C310.219910,97.906631 310.121521,97.909027 310.113831,98.198898 
	C310.502869,98.943642 310.899597,99.398506 311.296356,99.853371 
	C311.296356,99.853371 311.167328,99.855072 311.153137,100.178513 
	C312.531219,102.379066 313.923492,104.256187 315.315735,106.133301 
	C315.315735,106.133308 315.658997,106.117401 315.890564,106.533676 
	C317.072815,107.295250 318.023468,107.640549 319.444397,107.991028 
	C325.063263,107.996956 330.215729,108.119186 335.359192,107.956696 
	C338.916077,107.844322 342.460541,107.338860 346.010559,107.009048 
	C350.214844,110.140114 350.188049,112.432976 345.254822,115.811615 
	C335.521729,115.402191 326.438599,115.234650 317.354736,115.162254 
	C316.929657,115.158867 316.497833,116.003914 316.069183,116.453827 
	C311.022583,124.851479 306.568848,133.689102 300.757751,141.519394 
	C295.268372,148.916183 295.778931,154.916168 301.009613,161.958130 
	C304.851959,167.131088 307.592499,173.122559 310.823181,178.749771 
	C311.320282,179.615616 311.928131,180.439224 312.286163,181.359634 
	C313.511871,184.510422 313.267822,187.868195 309.945190,188.926117 
	C308.131134,189.503723 304.489685,188.177155 303.407959,186.553192 
	C298.809479,179.649857 294.329987,172.561325 290.833618,165.061813 
	C287.785278,158.523392 283.725189,156.202789 276.558929,156.776688 
	C267.783203,157.479492 258.905792,157.047180 250.076813,156.876190 
	C247.071838,156.817993 245.270493,157.698151 243.718903,160.419128 
	C233.917175,177.608246 223.860718,194.652283 214.096130,211.862106 
	C213.250702,213.352142 213.169846,216.104752 213.985382,217.578140 
	C220.907883,230.084656 228.020676,242.490433 235.371033,254.749786 
	C236.309845,256.315613 238.921616,257.706573 240.791809,257.750366 
	C252.283966,258.019470 263.790314,258.040466 275.279938,257.716553 
	C277.248383,257.661072 279.775757,255.989197 280.974548,254.303040 
	C283.949158,250.119019 286.428925,245.561844 288.871704,241.027542 
	C290.992706,237.090515 293.967529,235.203751 298.523132,235.379227 
	C304.014099,235.590744 309.540222,235.693390 315.007751,235.275360 
	C316.936157,235.127930 319.513916,233.772400 320.471191,232.175018 
	C327.477661,220.483414 334.134735,208.582718 340.940186,196.769974 
	C341.764923,195.338394 342.530823,193.474792 343.833099,192.812607 
	C345.649994,191.888733 348.665802,190.913513 349.856323,191.774582 
	C351.356812,192.859818 352.479248,195.982895 352.066284,197.851364 
	C351.410370,200.818848 349.438782,203.527802 347.864868,206.254379 
	C341.709686,216.917297 335.373718,227.478836 329.422729,238.253571 
	C328.507477,239.910782 328.556366,242.813889 329.375732,244.574829 
	C331.398499,248.921906 333.973450,253.041672 336.616150,257.062408 
	C339.293549,261.135956 339.564880,264.806854 336.703369,269.016968 
	C333.720764,273.405304 331.500366,278.305389 328.632446,282.780304 
	C326.855957,285.552155 326.959473,287.809540 328.621185,290.561859 
	C333.436096,298.536957 338.119476,306.595154 342.658112,314.730286 
	C343.635040,316.481293 344.490143,318.843567 344.102875,320.645111 
	C343.777100,322.160400 341.332550,324.506317 340.233673,324.301147 
	C337.954773,323.875671 335.120056,322.508820 333.966431,320.634827 
	C328.128448,311.151245 322.756348,301.380859 316.864014,291.083374 
	C308.610016,290.036224 300.712921,289.616730 292.815857,289.197266 
	C292.815857,289.197266 292.928497,289.200134 292.817017,288.948151 
	C292.357819,288.551453 292.010101,288.406738 291.662384,288.262024 
	C291.662384,288.262024 291.778717,288.162750 291.703491,287.915771 
	C291.238129,287.485718 290.847992,287.302643 290.457886,287.119598 
	C287.162018,281.777557 284.010956,276.336548 280.471466,271.161102 
	C279.553619,269.819031 277.433716,268.562988 275.843292,268.534454 
	C264.185120,268.325592 252.517838,268.303711 240.862289,268.587189 
	C238.970459,268.633148 236.326843,270.004089 235.380814,271.575409 
	C228.179596,283.536377 221.412079,295.757843 214.268982,307.754944 
	C212.657257,310.461853 212.832230,312.441772 214.347137,314.993958 
	C220.370499,325.141571 226.226395,335.388611 232.137787,345.602600 
	C232.970474,347.041351 234.448730,348.510376 234.429092,349.949005 
	C234.394974,352.448792 234.229889,355.919983 232.662415,357.201813 
	C230.192932,359.221283 227.119949,358.321045 225.248306,354.995117 
	C220.928253,347.318390 216.470444,339.718048 211.992294,332.131744 
	C209.047836,327.143646 207.045242,320.431946 202.643906,317.807037 
	C198.426727,315.292023 191.657806,316.986084 186.009689,316.955322 
	C175.680496,316.898987 165.347443,316.777222 155.022644,316.995636 
	C149.461517,317.113281 145.806992,315.279510 143.011536,310.142517 
	C136.025391,297.304535 128.382126,284.825806 121.201935,272.090485 
	C119.688271,269.405731 117.970612,268.291626 114.916603,268.367493 
	C107.924004,268.541107 100.911842,268.199341 93.935623,268.580017 
	C92.049133,268.682983 90.239388,270.583557 88.449760,271.744354 
	C88.086502,271.979980 87.932251,272.583740 87.749329,273.044678 
	C84.098633,282.244080 78.113571,287.420502 67.524284,285.172302 
	C63.096096,284.232147 60.523903,286.605682 58.535019,290.462067 
	C55.337399,296.662231 51.788513,302.688812 48.203571,308.678345 
	C46.446915,311.613281 44.653694,315.342438 40.144787,312.836578 
	C35.811993,310.428558 36.687340,307.087585 38.833763,303.512909 
	C42.595917,297.247437 46.108810,290.831970 49.887268,284.576691 
	C51.519329,281.874817 52.102699,279.329346 49.923424,276.796600 
	C42.213177,267.835754 41.963436,259.002441 49.629414,249.737350 
	C50.759689,248.371292 50.591396,244.871124 49.663509,243.052460 
	C46.344654,236.547485 42.504684,230.302414 38.729912,224.038544 
	C36.875141,220.960770 36.340904,217.786957 39.430992,215.652710 
	C42.799072,213.326477 45.805748,214.958038 47.761593,218.279312 
	C51.557255,224.724838 55.209461,231.255402 59.052883,237.671814 
	C59.844025,238.992584 61.211636,239.968048 62.787956,241.575043 
	C64.954453,242.364929 66.654984,242.989517 68.337074,242.943283 
	C73.738281,242.794846 79.093193,242.552002 83.308105,246.848816 
	C83.308105,246.848816 83.180443,246.889511 83.168182,247.201355 
	C83.662567,247.963272 84.169220,248.413361 84.675865,248.863434 
M58.005634,270.028229 
	C58.005634,270.028229 57.965851,270.077057 57.995892,270.765533 
	C58.428333,271.473297 58.860775,272.181061 59.162041,272.903595 
	C59.162041,272.903595 59.205055,272.778809 59.133476,273.474060 
	C59.590343,273.857819 60.047211,274.241547 60.323273,274.786957 
	C60.323273,274.786957 60.236870,274.560333 60.538769,275.360901 
	C65.013641,275.202057 69.488518,275.043243 73.971542,274.970947 
	C73.971542,274.970947 73.901718,274.919220 74.684448,274.948151 
	C75.370178,273.879944 76.055916,272.811737 76.794998,271.854401 
	C76.794998,271.854401 76.674355,271.830231 77.423805,271.674561 
	C77.906212,270.344849 78.388618,269.015137 78.946999,266.995239 
	C83.152748,261.802124 78.182014,258.521057 76.216888,254.760986 
	C74.481834,251.441086 63.323547,250.264526 60.528530,252.809525 
	C56.377407,256.589355 54.887436,263.472778 57.195122,269.234985 
	C57.444763,269.494965 57.694401,269.754944 58.005634,270.028229 
M99.002975,165.998917 
	C99.002975,165.998917 99.043884,165.938751 99.016479,166.774353 
	C98.792770,169.636856 99.985207,171.058624 102.987473,171.020920 
	C109.071358,170.944519 115.158195,171.059998 121.240288,170.930573 
	C122.158943,170.911026 123.058624,169.999222 124.540718,169.047485 
	C127.961121,163.362549 131.668060,157.821625 134.638824,151.910706 
	C135.613586,149.971191 135.416946,146.729645 134.467255,144.680908 
	C132.318069,140.044540 129.162445,135.885040 126.817558,131.325180 
	C125.395012,128.558884 123.594383,127.487366 120.565811,127.589981 
	C115.578049,127.758995 110.576973,127.748955 105.588242,127.595474 
	C102.625687,127.504318 100.643021,128.345917 99.180313,131.151382 
	C96.574890,136.148575 93.360222,140.833557 90.860802,145.877289 
	C90.112083,147.388184 90.356773,149.895660 91.081833,151.532059 
	C92.818504,155.451569 95.110893,159.124817 96.643936,163.258591 
	C97.450310,164.158325 98.256676,165.058060 99.002975,165.998917 
M248.201630,143.868408 
	C248.716003,144.224609 249.228165,144.888046 249.745056,144.891724 
	C260.377167,144.967514 271.010223,145.010406 281.641357,144.897873 
	C282.433502,144.889511 283.212708,143.660034 284.199585,142.331528 
	C289.578827,133.033218 295.005829,123.761826 300.280334,114.404503 
	C300.985291,113.153877 301.663483,111.041069 301.094818,110.050209 
	C295.188202,99.758102 289.023407,89.614189 282.643677,78.748802 
	C282.064575,78.503464 281.486511,78.046928 280.906250,78.044189 
	C270.858307,77.996658 260.809692,77.966072 250.762619,78.067223 
	C249.858658,78.076317 248.964066,79.015572 247.535110,80.032539 
	C242.119080,89.354546 236.600845,98.620087 231.389175,108.054970 
	C230.535507,109.600410 230.239105,112.328819 231.032349,113.767868 
	C236.481964,123.654106 242.290176,133.342667 248.201630,143.868408 
M195.753830,303.247711 
	C196.097672,303.321259 196.441498,303.394806 197.109604,304.095886 
	C197.706955,303.852844 198.304306,303.609833 199.471970,303.067139 
	C200.034164,302.734406 200.835815,302.541443 201.123474,302.048523 
	C208.324036,289.709534 215.530945,277.372925 222.521255,264.915009 
	C223.136230,263.819000 222.725342,261.635803 222.022415,260.391785 
	C215.646622,249.108047 209.193954,237.863998 202.489609,226.774094 
	C201.602524,225.306747 199.192947,223.960220 197.463715,223.929001 
	C184.476440,223.694473 171.480835,223.692154 158.493988,223.939896 
	C156.764008,223.972900 154.373184,225.398926 153.468140,226.893997 
	C146.753204,237.986404 140.255905,249.214371 133.933273,260.535461 
	C133.180695,261.882996 133.258575,264.400513 134.024918,265.778900 
	C140.403336,277.251587 146.930099,288.646667 153.703903,299.889282 
	C154.681915,301.512512 157.213043,302.199951 159.270782,304.054565 
	C159.987701,304.368469 160.703018,304.951477 161.421783,304.955750 
	C171.565414,305.016327 181.710037,305.046173 191.852737,304.932770 
	C192.996948,304.919983 194.130920,303.991058 195.753830,303.247711 
M305.774231,249.255875 
	C303.671356,249.889618 300.849548,249.871185 299.584930,251.265305 
	C292.546112,259.025116 292.285614,262.818726 297.545898,271.974701 
	C298.572205,273.761047 299.946503,276.440308 301.450806,276.653015 
	C305.852936,277.275452 310.650574,277.717255 314.794678,276.513458 
	C317.083893,275.848450 318.394348,271.756653 320.105042,269.182434 
	C320.932159,267.937744 321.740570,266.668549 322.412567,265.337311 
	C322.829498,264.511322 323.478271,263.274872 323.161102,262.690216 
	C320.866943,258.461365 318.944000,253.767883 315.663116,250.446915 
	C313.983032,248.746307 309.749084,249.568787 305.774231,249.255875 
M148.317123,72.617714 
	C149.353622,74.665375 150.220322,76.823273 151.462784,78.737244 
	C153.882950,82.465431 161.947052,81.932350 164.695312,78.417648 
	C168.228333,73.899315 166.456070,70.192535 163.884888,66.257851 
	C161.328430,62.345749 157.032379,63.556652 154.431976,64.528374 
	C151.911942,65.470062 150.492386,69.356712 148.317123,72.617714 
M179.500214,211.014130 
	C173.098801,211.014130 166.697388,211.014130 160.295990,211.014130 
	C160.305450,211.248978 160.314926,211.483841 160.324387,211.718689 
	C173.842484,211.718689 187.360580,211.718689 200.878677,211.718689 
	C200.880035,211.483841 200.881378,211.248978 200.882736,211.014130 
	C194.088486,211.014130 187.294250,211.014130 179.500214,211.014130 
M155.824615,211.251587 
	C155.880203,211.418549 155.935776,211.585526 155.991333,211.752487 
	C156.045990,211.584335 156.100647,211.416183 155.824615,211.251587 
z"/>
<path fill="#37A28B" opacity="1.000000" stroke="none" 
	d="
M293.181610,68.397079 
	C279.618652,68.151466 265.930267,67.606110 252.246384,66.964943 
	C250.329269,66.875122 248.434158,66.315483 246.272568,65.707314 
	C258.947906,65.468384 271.882751,65.351593 284.808685,65.637276 
	C287.574890,65.698418 290.308807,67.218750 293.181610,68.397079 
z"/>
<path fill="#1FA284" opacity="1.000000" stroke="none" 
	d="
M41.310680,153.241272 
	C42.575363,152.637802 44.139164,152.060623 45.708996,152.043701 
	C54.194328,151.952255 62.681732,151.948792 71.166931,152.045609 
	C72.705551,152.063156 74.237236,152.687378 75.904984,153.402374 
	C64.562759,153.690857 53.087673,153.608505 41.310680,153.241272 
z"/>
<path fill="#12A684" opacity="1.000000" stroke="none" 
	d="
M74.581535,143.309723 
	C74.913277,143.944885 74.777481,144.932755 74.657867,144.930801 
	C63.891972,144.754745 53.127316,144.502731 42.207832,143.921173 
	C52.742573,143.457794 63.432060,143.329086 74.581535,143.309723 
z"/>
<path fill="#18977B" opacity="1.000000" stroke="none" 
	d="
M316.522766,116.553467 
	C316.497833,116.003914 316.929657,115.158867 317.354736,115.162254 
	C326.438599,115.234650 335.521729,115.402191 344.897888,115.879875 
	C335.785980,116.356705 326.381165,116.504906 316.522766,116.553467 
z"/>
<path fill="#23A287" opacity="1.000000" stroke="none" 
	d="
M346.058594,106.998329 
	C342.460541,107.338860 338.916077,107.844322 335.359192,107.956696 
	C330.215729,108.119186 325.063263,107.996956 319.458374,107.763733 
	C319.002136,107.531258 319.029877,107.076355 319.070679,106.886177 
	C319.111511,106.695999 319.114349,106.306992 319.114349,106.306992 
	C324.424561,106.268295 329.734772,106.229599 335.745667,106.449738 
	C337.642395,106.563377 338.838409,106.418182 340.034424,106.272980 
	C341.398224,106.244980 342.762054,106.216980 344.670715,106.434341 
	C345.480865,106.888397 345.778778,106.958237 346.109283,106.889214 
	C346.109283,106.889214 346.106628,106.987602 346.058594,106.998329 
z"/>
<path fill="#23A78A" opacity="1.000000" stroke="none" 
	d="
M83.280647,246.494049 
	C79.093193,242.552002 73.738281,242.794846 68.337074,242.943283 
	C66.654984,242.989517 64.954453,242.364929 63.142555,241.679871 
	C67.112137,241.232513 71.204010,241.215729 75.290215,241.054749 
	C79.173294,240.901779 81.870338,242.452652 83.280647,246.494049 
z"/>
<path fill="#28A78C" opacity="1.000000" stroke="none" 
	d="
M293.048523,289.520874 
	C300.712921,289.616730 308.610016,290.036224 316.744385,290.756744 
	C310.991913,291.048126 304.999725,291.131653 299.013794,290.974884 
	C297.094391,290.924591 295.191589,290.239288 293.048523,289.520874 
z"/>
<path fill="#37A28B" opacity="1.000000" stroke="none" 
	d="
M310.166962,97.547485 
	C307.805481,93.901619 305.391052,89.896614 302.953064,85.525009 
	C305.324341,89.168388 307.719177,93.178360 310.166962,97.547485 
z"/>
<path fill="#37A28B" opacity="1.000000" stroke="none" 
	d="
M234.899658,46.656307 
	C232.429657,46.947792 229.928543,46.879238 227.030975,46.705925 
	C229.233154,42.555439 232.012527,43.390850 234.899658,46.656307 
z"/>
<path fill="#37A28B" opacity="1.000000" stroke="none" 
	d="
M302.855530,84.697334 
	C300.968353,82.097549 299.046631,79.148636 297.160095,75.798218 
	C299.070465,78.380554 300.945740,81.364380 302.855530,84.697334 
z"/>
<path fill="#37A28B" opacity="1.000000" stroke="none" 
	d="
M239.766113,54.722198 
	C238.266403,52.795784 236.751114,50.519272 235.178894,47.863071 
	C236.664810,49.779625 238.207657,52.075867 239.766113,54.722198 
z"/>
<path fill="#37A28B" opacity="1.000000" stroke="none" 
	d="
M315.220398,105.834122 
	C313.923492,104.256187 312.531219,102.379066 311.185089,100.122459 
	C312.529144,101.673630 313.827087,103.604286 315.220398,105.834122 
z"/>
<path fill="#37A28B" opacity="1.000000" stroke="none" 
	d="
M245.571045,64.776039 
	C244.129303,62.907570 242.609024,60.714916 241.163940,58.142471 
	C242.656921,59.992409 244.074707,62.222134 245.571045,64.776039 
z"/>
<path fill="#37A28B" opacity="1.000000" stroke="none" 
	d="
M296.932068,74.640396 
	C295.717957,73.144676 294.437317,71.309601 293.214966,69.091110 
	C294.470703,70.572144 295.668121,72.436592 296.932068,74.640396 
z"/>
<path fill="#37A28B" opacity="1.000000" stroke="none" 
	d="
M226.319229,46.823914 
	C226.707596,48.233372 226.810043,49.794712 226.817902,51.820545 
	C226.493301,50.515293 226.263306,48.745544 226.319229,46.823914 
z"/>
<path fill="#37A28B" opacity="1.000000" stroke="none" 
	d="
M319.029877,107.076355 
	C319.029877,107.076355 319.002136,107.531258 318.988129,107.758560 
	C318.023468,107.640549 317.072815,107.295250 316.024780,106.640930 
	C316.379822,106.262901 316.832245,106.193893 317.753967,106.375000 
	C318.462006,106.829399 318.730865,106.979805 319.029877,107.076355 
z"/>
<path fill="#69BAAB" opacity="1.000000" stroke="none" 
	d="
M339.639038,106.147873 
	C338.838409,106.418182 337.642395,106.563377 336.208710,106.496506 
	C337.061920,106.197205 338.152802,106.109978 339.639038,106.147873 
z"/>
<path fill="#37A28B" opacity="1.000000" stroke="none" 
	d="
M241.277802,57.556641 
	C240.858322,57.241673 240.409653,56.628483 239.917206,55.705048 
	C240.331833,56.016006 240.790237,56.637215 241.277802,57.556641 
z"/>
<path fill="#37A28B" opacity="1.000000" stroke="none" 
	d="
M227.761963,54.405457 
	C228.167755,54.711700 228.598068,55.307766 229.068832,56.200260 
	C228.668350,55.896221 228.227432,55.295750 227.761963,54.405457 
z"/>
<path fill="#23A78A" opacity="1.000000" stroke="none" 
	d="
M84.617355,248.524780 
	C84.169220,248.413361 83.662567,247.963272 83.179123,247.135254 
	C83.654503,247.233582 84.106674,247.709854 84.617355,248.524780 
z"/>
<path fill="#37A28B" opacity="1.000000" stroke="none" 
	d="
M311.261444,99.549423 
	C310.899597,99.398506 310.502869,98.943642 310.135559,98.154770 
	C310.518860,98.295670 310.872681,98.770576 311.261444,99.549423 
z"/>
<path fill="#37A28B" opacity="1.000000" stroke="none" 
	d="
M226.699158,52.480591 
	C227.070374,52.625755 227.478302,53.076504 227.847992,53.866005 
	C227.451797,53.731892 227.093826,53.259029 226.699158,52.480591 
z"/>
<path fill="#69BAAB" opacity="1.000000" stroke="none" 
	d="
M346.007477,106.646454 
	C345.778778,106.958237 345.480865,106.888397 345.076599,106.490189 
	C345.260315,106.335014 345.582977,106.369354 346.007477,106.646454 
z"/>
<path fill="#28A78C" opacity="1.000000" stroke="none" 
	d="
M290.586365,287.420593 
	C290.847992,287.302643 291.238129,287.485718 291.722534,287.989807 
	C291.449493,288.114441 291.082153,287.917999 290.586365,287.420593 
z"/>
<path fill="#28A78C" opacity="1.000000" stroke="none" 
	d="
M291.735779,288.547333 
	C292.010101,288.406738 292.357819,288.551453 292.776215,288.987000 
	C292.500977,289.129425 292.155060,288.981018 291.735779,288.547333 
z"/>
<path fill="#69BAAB" opacity="1.000000" stroke="none" 
	d="
M319.070679,106.886177 
	C318.730865,106.979805 318.462006,106.829399 318.094482,106.432716 
	C318.160065,106.201492 318.354370,106.162674 318.831482,106.215424 
	C319.114349,106.306992 319.111511,106.695999 319.070679,106.886177 
z"/>
<path fill="#F4FDFC" opacity="1.000000" stroke="none" 
	d="
M159.025436,303.320435 
	C157.213043,302.199951 154.681915,301.512512 153.703903,299.889282 
	C146.930099,288.646667 140.403336,277.251587 134.024918,265.778900 
	C133.258575,264.400513 133.180695,261.882996 133.933273,260.535461 
	C140.255905,249.214371 146.753204,237.986404 153.468140,226.893997 
	C154.373184,225.398926 156.764008,223.972900 158.493988,223.939896 
	C171.480835,223.692154 184.476440,223.694473 197.463715,223.929001 
	C199.192947,223.960220 201.602524,225.306747 202.489609,226.774094 
	C209.193954,237.863998 215.646622,249.108047 222.022415,260.391785 
	C222.725342,261.635803 223.136230,263.819000 222.521255,264.915009 
	C215.530945,277.372925 208.324036,289.709534 201.123474,302.048523 
	C200.835815,302.541443 200.034164,302.734406 198.833176,303.166656 
	C197.724701,303.333588 197.255020,303.400970 196.785339,303.468384 
	C196.441498,303.394806 196.097672,303.321259 195.074005,303.263123 
	C182.604614,303.292511 170.815018,303.306458 159.025436,303.320435 
M155.504288,247.038696 
	C146.076981,259.804291 149.912170,275.974274 159.947983,284.352844 
	C171.785538,294.235626 187.955750,292.847260 198.140503,282.171112 
	C209.228241,270.548401 208.332367,252.571945 195.602661,241.544800 
	C184.062653,231.548233 165.080353,233.885803 155.504288,247.038696 
z"/>
<path fill="#F2FCFB" opacity="1.000000" stroke="none" 
	d="
M282.930328,79.429108 
	C289.023407,89.614189 295.188202,99.758102 301.094818,110.050209 
	C301.663483,111.041069 300.985291,113.153877 300.280334,114.404503 
	C295.005829,123.761826 289.578827,133.033218 283.631805,142.707245 
	C271.370331,143.086929 259.676636,143.090897 247.982956,143.094864 
	C242.290176,133.342667 236.481964,123.654106 231.032349,113.767868 
	C230.239105,112.328819 230.535507,109.600410 231.389175,108.054970 
	C236.600845,98.620087 242.119080,89.354546 248.256073,79.860214 
	C260.294800,79.601631 271.612579,79.515373 282.930328,79.429108 
M263.151550,89.797913 
	C250.257309,91.660957 242.182312,103.071754 244.755157,116.153999 
	C246.750626,126.300568 257.942169,134.149551 267.946320,132.780396 
	C282.226624,130.825989 288.883545,118.372314 287.047180,107.958176 
	C285.022705,96.477173 276.208557,89.806480 263.151550,89.797913 
z"/>
<path fill="#F1FCFB" opacity="1.000000" stroke="none" 
	d="
M97.178970,162.897476 
	C95.110893,159.124817 92.818504,155.451569 91.081833,151.532059 
	C90.356773,149.895660 90.112083,147.388184 90.860802,145.877289 
	C93.360222,140.833557 96.574890,136.148575 99.180313,131.151382 
	C100.643021,128.345917 102.625687,127.504318 105.588242,127.595474 
	C110.576973,127.748955 115.578049,127.758995 120.565811,127.589981 
	C123.594383,127.487366 125.395012,128.558884 126.817558,131.325180 
	C129.162445,135.885040 132.318069,140.044540 134.467255,144.680908 
	C135.416946,146.729645 135.613586,149.971191 134.638824,151.910706 
	C131.668060,157.821625 127.961121,163.362549 123.808075,169.184601 
	C120.342720,169.409409 117.609993,169.497086 114.688095,169.486847 
	C114.498917,169.388916 114.110466,169.563904 113.667404,169.443420 
	C111.090134,169.295593 108.937439,169.078781 106.825966,169.284683 
	C103.543648,169.604782 100.658752,169.342407 99.043884,165.938751 
	C99.043884,165.938751 99.002975,165.998917 98.951141,165.686020 
	C98.325859,164.547913 97.752411,163.722687 97.178970,162.897476 
M122.433609,155.811035 
	C123.000969,154.614807 123.665131,153.454056 124.118668,152.216141 
	C125.933815,147.261688 124.054489,141.578354 119.692993,138.633072 
	C115.612198,135.877350 108.986107,136.315704 105.355522,139.581573 
	C100.137657,144.275269 99.552467,150.849045 103.899399,155.938858 
	C108.625328,161.472443 115.747505,161.650070 122.433609,155.811035 
z"/>
<path fill="#F3FCFB" opacity="1.000000" stroke="none" 
	d="
M306.221802,249.253418 
	C309.749084,249.568787 313.983032,248.746307 315.663116,250.446915 
	C318.944000,253.767883 320.866943,258.461365 323.161102,262.690216 
	C323.478271,263.274872 322.829498,264.511322 322.412567,265.337311 
	C321.740570,266.668549 320.932159,267.937744 320.105042,269.182434 
	C318.394348,271.756653 317.083893,275.848450 314.794678,276.513458 
	C310.650574,277.717255 305.852936,277.275452 301.450806,276.653015 
	C299.946503,276.440308 298.572205,273.761047 297.545898,271.974701 
	C292.285614,262.818726 292.546112,259.025116 299.584930,251.265305 
	C300.849548,249.871185 303.671356,249.889618 306.221802,249.253418 
z"/>
<path fill="#F2FCFB" opacity="1.000000" stroke="none" 
	d="
M57.090584,268.692200 
	C54.887436,263.472778 56.377407,256.589355 60.528530,252.809525 
	C63.323547,250.264526 74.481834,251.441086 76.216888,254.760986 
	C78.182014,258.521057 83.152748,261.802124 78.649307,267.566772 
	C77.792526,269.368958 77.233437,270.599579 76.674355,271.830231 
	C76.674355,271.830231 76.794998,271.854401 76.491310,271.931274 
	C75.425659,272.978516 74.663689,273.948853 73.901718,274.919220 
	C73.901718,274.919220 73.971542,274.970947 73.511627,274.851990 
	C68.780090,274.675446 64.508484,274.617889 60.236870,274.560333 
	C60.236870,274.560333 60.323273,274.786957 60.387856,274.408905 
	C60.036644,273.613495 59.620853,273.196167 59.205055,272.778809 
	C59.205055,272.778809 59.162041,272.903595 59.234196,272.568604 
	C58.859516,271.514771 58.412682,270.795898 57.965851,270.077057 
	C57.965851,270.077057 58.005634,270.028229 57.949734,269.739990 
	C57.626083,269.198578 57.358334,268.945404 57.090584,268.692200 
z"/>
<path fill="#EFFDFB" opacity="1.000000" stroke="none" 
	d="
M148.453308,72.283829 
	C150.492386,69.356712 151.911942,65.470062 154.431976,64.528374 
	C157.032379,63.556652 161.328430,62.345749 163.884888,66.257851 
	C166.456070,70.192535 168.228333,73.899315 164.695312,78.417648 
	C161.947052,81.932350 153.882950,82.465431 151.462784,78.737244 
	C150.220322,76.823273 149.353622,74.665375 148.453308,72.283829 
z"/>
<path fill="#18AA88" opacity="1.000000" stroke="none" 
	d="
M248.092285,143.481628 
	C259.676636,143.090897 271.370331,143.086929 283.530975,143.040588 
	C283.212708,143.660034 282.433502,144.889511 281.641357,144.897873 
	C271.010223,145.010406 260.377167,144.967514 249.745056,144.891724 
	C249.228165,144.888046 248.716003,144.224609 248.092285,143.481628 
z"/>
<path fill="#1BA182" opacity="1.000000" stroke="none" 
	d="
M282.786987,79.088959 
	C271.612579,79.515373 260.294800,79.601631 248.521088,79.605370 
	C248.964066,79.015572 249.858658,78.076317 250.762619,78.067223 
	C260.809692,77.966072 270.858307,77.996658 280.906250,78.044189 
	C281.486511,78.046928 282.064575,78.503464 282.786987,79.088959 
z"/>
<path fill="#18AA88" opacity="1.000000" stroke="none" 
	d="
M159.148102,303.687500 
	C170.815018,303.306458 182.604614,303.292511 194.831909,303.382751 
	C194.130920,303.991058 192.996948,304.919983 191.852737,304.932770 
	C181.710037,305.046173 171.565414,305.016327 161.421783,304.955750 
	C160.703018,304.951477 159.987701,304.368469 159.148102,303.687500 
z"/>
<path fill="#28A78C" opacity="1.000000" stroke="none" 
	d="
M99.030182,166.356552 
	C100.658752,169.342407 103.543648,169.604782 106.825966,169.284683 
	C108.937439,169.078781 111.090134,169.295593 113.751755,169.513428 
	C114.279167,169.703918 114.594070,169.743195 114.594070,169.743195 
	C114.594070,169.743195 114.877274,169.584778 114.877274,169.584778 
	C117.609993,169.497086 120.342720,169.409409 123.521255,169.410934 
	C123.058624,169.999222 122.158943,170.911026 121.240288,170.930573 
	C115.158195,171.059998 109.071358,170.944519 102.987473,171.020920 
	C99.985207,171.058624 98.792770,169.636856 99.030182,166.356552 
z"/>
<path fill="#18AA88" opacity="1.000000" stroke="none" 
	d="
M180.000107,211.014130 
	C187.294250,211.014130 194.088486,211.014130 200.882736,211.014130 
	C200.881378,211.248978 200.880035,211.483841 200.878677,211.718689 
	C187.360580,211.718689 173.842484,211.718689 160.324387,211.718689 
	C160.314926,211.483841 160.305450,211.248978 160.295990,211.014130 
	C166.697388,211.014130 173.098801,211.014130 180.000107,211.014130 
z"/>
<path fill="#2EA48A" opacity="1.000000" stroke="none" 
	d="
M60.387817,274.960632 
	C64.508484,274.617889 68.780090,274.675446 73.507553,274.808716 
	C69.488518,275.043243 65.013641,275.202057 60.387817,274.960632 
z"/>
<path fill="#28A78C" opacity="1.000000" stroke="none" 
	d="
M96.911453,163.078033 
	C97.752411,163.722687 98.325859,164.547913 98.981171,165.665466 
	C98.256676,165.058060 97.450310,164.158325 96.911453,163.078033 
z"/>
<path fill="#2EA48A" opacity="1.000000" stroke="none" 
	d="
M74.293091,274.933685 
	C74.663689,273.948853 75.425659,272.978516 76.464630,271.875854 
	C76.055916,272.811737 75.370178,273.879944 74.293091,274.933685 
z"/>
<path fill="#2EA48A" opacity="1.000000" stroke="none" 
	d="
M77.049080,271.752380 
	C77.233437,270.599579 77.792526,269.368958 78.611320,267.911865 
	C78.388618,269.015137 77.906212,270.344849 77.049080,271.752380 
z"/>
<path fill="#2EA48A" opacity="1.000000" stroke="none" 
	d="
M57.980869,270.421295 
	C58.412682,270.795898 58.859516,271.514771 59.299782,272.561218 
	C58.860775,272.181061 58.428333,271.473297 57.980869,270.421295 
z"/>
<path fill="#2EA48A" opacity="1.000000" stroke="none" 
	d="
M59.169266,273.126434 
	C59.620853,273.196167 60.036644,273.613495 60.478260,274.328064 
	C60.047211,274.241547 59.590343,273.857819 59.169266,273.126434 
z"/>
<path fill="#18AA88" opacity="1.000000" stroke="none" 
	d="
M155.989960,211.249817 
	C156.100647,211.416183 156.045990,211.584335 155.991333,211.752487 
	C155.935776,211.585526 155.880203,211.418549 155.989960,211.249817 
z"/>
<path fill="#18AA88" opacity="1.000000" stroke="none" 
	d="
M196.947479,303.782104 
	C197.255020,303.400970 197.724701,303.333588 198.548019,303.316498 
	C198.304306,303.609833 197.706955,303.852844 196.947479,303.782104 
z"/>
<path fill="#2EA48A" opacity="1.000000" stroke="none" 
	d="
M57.142853,268.963593 
	C57.358334,268.945404 57.626083,269.198578 57.918938,269.733368 
	C57.694401,269.754944 57.444763,269.494965 57.142853,268.963593 
z"/>
<path fill="#2AB194" opacity="1.000000" stroke="none" 
	d="
M155.704346,246.736069 
	C165.080353,233.885803 184.062653,231.548233 195.602661,241.544800 
	C208.332367,252.571945 209.228241,270.548401 198.140503,282.171112 
	C187.955750,292.847260 171.785538,294.235626 159.947983,284.352844 
	C149.912170,275.974274 146.076981,259.804291 155.704346,246.736069 
M162.097504,276.297546 
	C173.404175,289.173187 189.745026,284.243011 195.819427,273.715729 
	C200.010574,266.452240 199.671051,259.063263 195.388779,252.025269 
	C191.239883,245.206497 184.554718,241.641663 176.918671,242.392822 
	C160.991516,243.959579 150.829468,260.722473 162.097504,276.297546 
z"/>
<path fill="#2BB195" opacity="1.000000" stroke="none" 
	d="
M263.533875,89.731026 
	C276.208557,89.806480 285.022705,96.477173 287.047180,107.958176 
	C288.883545,118.372314 282.226624,130.825989 267.946320,132.780396 
	C257.942169,134.149551 246.750626,126.300568 244.755157,116.153999 
	C242.182312,103.071754 250.257309,91.660957 263.533875,89.731026 
M276.355743,101.186951 
	C274.363098,100.036339 272.485413,98.573174 270.357391,97.790688 
	C262.314880,94.833389 253.899155,99.381180 251.740158,107.659447 
	C249.582703,115.931854 254.775024,123.991646 263.209015,125.428627 
	C268.924469,126.402420 273.814484,124.853134 277.288666,120.132668 
	C281.811554,113.987289 281.233673,107.782501 276.355743,101.186951 
z"/>
<path fill="#44B097" opacity="1.000000" stroke="none" 
	d="
M122.184845,156.099854 
	C115.747505,161.650070 108.625328,161.472443 103.899399,155.938858 
	C99.552467,150.849045 100.137657,144.275269 105.355522,139.581573 
	C108.986107,136.315704 115.612198,135.877350 119.692993,138.633072 
	C124.054489,141.578354 125.933815,147.261688 124.118668,152.216141 
	C123.665131,153.454056 123.000969,154.614807 122.184845,156.099854 
M105.794952,144.579834 
	C104.013657,148.753235 104.354012,153.034180 108.505402,154.894318 
	C111.134918,156.072540 115.458427,155.782379 117.989937,154.339584 
	C122.058044,152.021027 121.970558,146.599686 118.778885,143.074982 
	C115.445312,139.393585 110.749382,139.689178 105.794952,144.579834 
z"/>
<path fill="#23B294" opacity="1.000000" stroke="none" 
	d="
M114.688095,169.486847 
	C114.877274,169.584778 114.594070,169.743195 114.594070,169.743195 
	C114.594070,169.743195 114.279167,169.703918 114.194817,169.633911 
	C114.110466,169.563904 114.498917,169.388916 114.688095,169.486847 
z"/>
<path fill="#F7FDFD" opacity="1.000000" stroke="none" 
	d="
M161.847733,276.026428 
	C150.829468,260.722473 160.991516,243.959579 176.918671,242.392822 
	C184.554718,241.641663 191.239883,245.206497 195.388779,252.025269 
	C199.671051,259.063263 200.010574,266.452240 195.819427,273.715729 
	C189.745026,284.243011 173.404175,289.173187 161.847733,276.026428 
z"/>
<path fill="#F5FCFC" opacity="1.000000" stroke="none" 
	d="
M276.612061,101.468918 
	C281.233673,107.782501 281.811554,113.987289 277.288666,120.132668 
	C273.814484,124.853134 268.924469,126.402420 263.209015,125.428627 
	C254.775024,123.991646 249.582703,115.931854 251.740158,107.659447 
	C253.899155,99.381180 262.314880,94.833389 270.357391,97.790688 
	C272.485413,98.573174 274.363098,100.036339 276.612061,101.468918 
z"/>
<path fill="#F1FCFC" opacity="1.000000" stroke="none" 
	d="
M105.991844,144.223679 
	C110.749382,139.689178 115.445312,139.393585 118.778885,143.074982 
	C121.970558,146.599686 122.058044,152.021027 117.989937,154.339584 
	C115.458427,155.782379 111.134918,156.072540 108.505402,154.894318 
	C104.354012,153.034180 104.013657,148.753235 105.991844,144.223679 
z"/>
</svg>